<?xml version="1.0" encoding="utf-8"?>
<!-- Generator: Adobe Illustrator 16.0.0, SVG Export Plug-In . SVG Version: 6.00 Build 0)  -->
<!DOCTYPE svg PUBLIC "-//W3C//DTD SVG 1.1//EN" "http://www.w3.org/Graphics/SVG/1.1/DTD/svg11.dtd">
<svg version="1.1" id="Layer_1" xmlns="http://www.w3.org/2000/svg" xmlns:xlink="http://www.w3.org/1999/xlink" x="0px" y="0px"
	 width="498.186px" height="188.531px" viewBox="0 0 498.186 188.531" enable-background="new 0 0 498.186 188.531"
	 xml:space="preserve">
<g>
	<path d="M13.26,111.247c-3.995-4-5.458-9.868-2.802-15.718c1.729-3.809,4.434-6.841,7.56-9.534
		c4.786-4.125,10.206-7.299,15.674-10.398c0.118-0.066,0.24-0.125,0.354-0.198c0.885-0.565,2.092-0.793,2.664-1.623
		c0.568-0.826,0.667-1.979,0.957-2.992c5.564-19.439,11.127-38.879,16.682-58.321c0.128-0.446,0.322-0.699,0.794-0.888
		c3.771-1.5,7.007-3.847,10.032-6.505c1.093-0.961,2.134-1.98,3.287-2.94c-6.655,22.85-14.93,45.157-22.612,67.791
		c1.42-0.694,2.761-1.353,4.105-2.004c14.285-6.922,28.912-13.058,43.614-19.024c12.646-5.131,25.369-10.066,38.153-14.842
		c0.151-0.057,0.308-0.097,0.462-0.146c0.157-0.059,0.215,0.003,0.194,0.16c-12.809,5.465-25.464,11.267-38.033,17.261
		C77.66,59.284,61.273,67.792,45.458,77.381c-2.063,1.251-3.341,2.771-4.139,5.125c-4.303,12.694-8.804,25.321-13.215,37.979
		c-0.217,0.623-0.416,0.709-0.976,0.376c-0.882-0.524-1.795-1.006-2.732-1.424c-0.528-0.236-0.543-0.49-0.398-0.991
		c2.434-8.442,4.846-16.891,7.262-25.337c0.647-2.263,1.29-4.526,1.936-6.788c0.043-0.153,0.145-0.297,0.009-0.556
		c-1.184,0.862-2.374,1.694-3.527,2.573c-4.64,3.537-9.042,7.351-13.173,11.468c-1.349,1.343-2.397,2.928-3.109,4.718
		c-0.871,2.19-0.946,4.364,0.057,6.535C13.502,111.235,13.422,111.283,13.26,111.247z"/>
	<path d="M132.377,34.066c-0.065-0.053-0.129-0.107-0.194-0.16c0.514-0.303,1.08-0.472,1.649-0.635
		c0.165-0.083,0.189,0.001,0.169,0.141C133.46,33.63,132.919,33.848,132.377,34.066z"/>
	<path d="M134.002,33.412c-0.057-0.047-0.112-0.094-0.169-0.141c0.529-0.304,1.105-0.476,1.74-0.516
		C135.049,32.974,134.525,33.193,134.002,33.412z"/>
</g>
<g>
	<path d="M374.617,154.944c-0.084,0.007-0.167,0.014-0.25,0.021C374.458,154.964,374.541,154.956,374.617,154.944z"/>
	<path d="M493.584,137.879L493.584,137.879c-0.555,0.057-1.104,0.136-1.627,0.341c-0.001,0-0.001,0-0.002,0.001
		c-0.985,0.167-1.973,0.331-2.958,0.502c-2.198,0.384-4.396,0.77-6.595,1.154c0,0,0,0,0,0.001c0-0.001,0-0.001,0-0.001
		c-2.987,0.434-5.974,0.872-8.963,1.3c-5.195,0.743-10.4,1.425-15.616,2.009c-4.813,0.538-9.629,1.05-14.444,1.569
		c-1.962,0.212-3.925,0.416-5.888,0.623l0,0c-0.297,0.011-0.594,0.006-0.889,0.031c-3.901,0.334-7.803,0.67-11.703,1.012
		c-2.312,0.202-4.622,0.412-6.934,0.619l0,0l0,0c-0.742,0.043-1.484,0.08-2.227,0.129c-3.504,0.233-7.009,0.464-10.513,0.707
		c-2.046,0.144-4.091,0.311-6.137,0.467l0,0c-2.451,0.127-4.903,0.227-7.351,0.394c-1.075,0.073-2.162-0.009-3.227,0.222
		c-1.294,0.055-2.588,0.1-3.881,0.167c-3.1,0.162-6.199,0.336-9.298,0.504c-0.001,0-0.001,0-0.001,0
		c-0.545,0.013-1.089,0.024-1.634,0.036c-0.001,0-0.001,0.001-0.001,0.001c-0.398,0.017-0.81-0.091-1.19,0.111
		c-0.002,0.001-0.004,0.002-0.006,0.002c-0.106-0.015-0.214-0.051-0.318-0.045c-4.375,0.186-8.749,0.375-13.122,0.563h-0.001
		c-3.2,0.113-6.4,0.228-9.601,0.34v0.001c-5.206,0.155-10.414,0.313-15.621,0.47c-0.215-0.012-0.432-0.036-0.646-0.032
		c-5.943,0.116-11.887,0.223-17.83,0.364c-0.911,0.021-1.834-0.134-2.736,0.118c-2.836,0.016-5.672,0.01-8.508,0.058
		c-1.179,0.02-2.367-0.146-3.538,0.114c-0.002,0.001-0.004,0.001-0.005,0.001c-1.485-0.104-2.971-0.018-4.456-0.011
		c-6.303,0.027-12.606,0.037-18.908,0.058c-0.293,0.001-0.599-0.066-0.872,0.105c-3.777-0.096-7.554-0.027-11.33,0.038l0,0
		c-4.285,0-8.57-0.002-12.854-0.003c-0.105-0.023-0.21-0.066-0.315-0.066c-4.614-0.028-9.228-0.051-13.842-0.075
		c-4.068-0.055-8.136-0.108-12.204-0.163c-3.834-0.086-7.668-0.178-11.504-0.259c-2.186-0.047-4.372-0.08-6.557-0.119
		c-1.502-0.234-3.019-0.117-4.526-0.181c-3.804-0.158-7.608-0.273-11.412-0.405c0,0,0,0,0,0c0,0,0,0-0.001,0
		c-1.739-0.064-3.477-0.129-5.215-0.193c0,0.001,0,0.001,0,0.001c0,0,0-0.001,0-0.001c-1.374-0.076-2.748-0.156-4.122-0.228
		c-3.612-0.186-7.223-0.367-10.835-0.55c0,0-0.001,0-0.001,0c-1.592-0.104-3.183-0.214-4.776-0.313
		c-3.185-0.194-6.37-0.382-9.555-0.572c0,0.001,0,0.001,0,0.001l0,0c-1.481-0.128-2.961-0.26-4.442-0.381
		c-3.506-0.288-7.013-0.571-10.52-0.855l0,0l0,0c-1.557-0.151-3.114-0.3-4.669-0.455c-3.379-0.337-6.758-0.678-10.137-1.018
		c-0.001,0-0.002,0-0.003-0.001c-2.227-0.269-4.453-0.541-6.68-0.805c-2.494-0.297-4.989-0.587-7.483-0.88c0,0,0,0,0,0l0,0
		c-2.441-0.356-4.882-0.713-7.323-1.07v0.001c0,0,0,0-0.001-0.001c-4.662-0.761-9.323-1.521-13.985-2.281l0,0
		c-0.293-0.021-0.596-0.001-0.877-0.07c-3.369-0.833-6.799-1.362-10.195-2.063l0,0c-3.797-0.861-7.594-1.723-11.392-2.583
		c-2.33-0.583-4.664-1.154-6.99-1.752c-3.422-0.88-6.838-1.779-10.258-2.669l0,0c-0.577-0.171-1.155-0.34-1.731-0.514
		c-2.298-0.697-4.596-1.396-6.894-2.093l0,0c-1.248-0.426-2.495-0.852-3.743-1.278l0,0c-1.737-0.653-3.474-1.307-5.21-1.959l0,0
		c-0.971-0.4-1.942-0.799-2.914-1.198l0,0l0,0c-1.36-0.63-2.72-1.26-4.08-1.888c-1.222-0.662-2.451-1.309-3.732-1.85l0,0
		c-1.414-0.804-2.828-1.608-4.242-2.412c-1.722-1.178-3.429-2.373-5.044-3.696c0,0,0,0.001-0.001,0.001v-0.001
		c-0.969-0.956-1.939-1.911-2.908-2.867c-1.184-1.476-2.233-3.04-3.089-4.729c-0.066-0.203-0.122-0.411-0.2-0.61
		c-0.963-2.446-1.245-4.958-0.829-7.563c0.462-2.895,1.733-5.435,3.301-7.859l0,0c0.215-0.152,0.35-0.357,0.446-0.703
		c-0.297,0.153-0.504,0.281-0.633,0.516c0,0,0,0,0,0l0,0c-2.29,2.017-4.264,4.293-5.735,6.982c0,0,0,0,0,0
		c-1.355,2.171-2.204,4.534-2.719,7.032c-0.089,0.432-0.014,0.911-0.323,1.29c0,1.247,0,2.494,0,3.742v0.001
		c0,0.379,0,0.759,0,1.139c0,0.055,0,0.108,0,0.162c0.394,0.852,0.396,1.797,0.646,2.684c0.548,1.939,1.204,3.824,2.41,5.468
		c0.934,1.547,2.103,2.897,3.432,4.114h0c0.897,0.941,1.858,1.81,2.931,2.549c0,0,0.001,0,0.001,0c0,0,0,0-0.001,0.001
		c0.899,0.808,1.871,1.513,2.911,2.126c0-0.001,0-0.001,0-0.001s0,0,0,0.001c1.592,1.179,3.29,2.185,5.05,3.088
		c0.218,0.155,0.436,0.313,0.654,0.47c-0.996,3.454-2,6.907-2.988,10.364c-4.225,14.792-8.446,29.586-12.666,44.38
		c-0.05,0.174-0.215,0.355,0.024,0.567c0.068-0.161,0.139-0.305,0.191-0.453c3.256-9.252,6.508-18.505,9.767-27.756
		c2.989-8.486,5.987-16.97,8.981-25.454c0.145,0.053,0.291,0.104,0.435,0.159l0,0c1.267,0.688,2.568,1.301,3.923,1.797
		c1.258,0.648,2.564,1.181,3.905,1.633c0.949,0.449,1.9,0.892,2.929,1.134c0,0,0,0,0,0c1.637,0.7,3.309,1.301,5.023,1.784
		c1.322,0.56,2.695,0.967,4.079,1.338l0,0c0.896,0.289,1.78,0.616,2.688,0.859c1.919,0.516,3.789,1.217,5.756,1.551
		c0.122,0.05,0.24,0.113,0.366,0.147c2.922,0.788,5.875,1.453,8.835,2.071c2.616,0.547,5.221,1.159,7.872,1.525
		c0.894,0.185,1.783,0.393,2.681,0.552c3.023,0.534,6.038,1.115,9.083,1.521v-0.001c1.546,0.255,3.088,0.546,4.641,0.759
		c2.189,0.299,4.353,0.777,6.565,0.903l0,0c2.03,0.428,4.096,0.616,6.149,0.88c2.564,0.328,5.121,0.727,7.704,0.898v-0.001l0,0
		c2.428,0.378,4.869,0.652,7.32,0.817c0,0,0,0,0,0c0.155,0.041,0.307,0.104,0.463,0.121c2.175,0.224,4.348,0.475,6.526,0.652
		c2.203,0.18,4.394,0.513,6.609,0.541c0.27,0.168,0.577,0.118,0.871,0.145c1.564,0.138,3.128,0.287,4.694,0.404
		c3.375,0.251,6.751,0.485,10.127,0.727l0,0c1.776,0.138,3.55,0.307,5.328,0.406c2.614,0.146,5.222,0.414,7.843,0.42
		c0.002,0.001,0.003,0.001,0.005,0.001c0.154,0.03,0.308,0.077,0.464,0.086c1.865,0.102,3.729,0.206,5.595,0.293
		c3.351,0.153,6.698,0.4,10.055,0.421v0.001c4.815,0.287,9.636,0.453,14.459,0.51c0-0.001,0-0.001,0.001-0.001
		c2.055,0.199,4.116,0.142,6.175,0.169l0,0c1.159,0.043,2.318,0.115,3.476,0.124c3.896,0.027,7.789,0.238,11.687,0.155
		c1.701,0.022,3.402,0.05,5.103,0.064c4.319,0.036,8.639,0.066,12.958,0.099c4.068,0,8.136,0,12.204,0
		c4.613-0.004,9.226-0.008,13.839-0.013c4.392,0.043,8.782-0.011,13.173-0.132v-0.001c3.565,0.058,7.13-0.035,10.694-0.104
		c1.646-0.031,3.294-0.063,4.939-0.094v0.001c3.511-0.07,7.022-0.133,10.534-0.211c3.591-0.079,7.182-0.175,10.773-0.264
		c0,0,0,0,0.001-0.001c0,0.001,0,0.001-0.001,0.002c3.527-0.109,7.055-0.22,10.582-0.329c0,0,0,0,0-0.001
		c0.135,0.004,0.271,0.015,0.405,0.009c5.237-0.204,10.476-0.411,15.715-0.616c1.858-0.073,3.72-0.086,5.57-0.305
		c0.188,0.012,0.378,0.043,0.564,0.033c3.967-0.188,7.934-0.376,11.899-0.58c1.318-0.068,2.636-0.184,3.953-0.278c0,0,0,0-0.001,0
		c0.001,0,0.001,0,0.001,0c2.813-0.066,5.62-0.244,8.422-0.516c0.188,0.005,0.377,0.025,0.564,0.013
		c4.153-0.281,8.307-0.567,12.46-0.852c0.326,0.013,0.651,0.018,0.967-0.063c0.063-0.012,0.127-0.027,0.189-0.055
		c0.001,0,0.002,0,0.003-0.001l0,0c0,0,0,0,0.001,0c0.374-0.017,0.746-0.033,1.12-0.05c0.119-0.011,0.225-0.02,0.322-0.029
		c-0.023,0.004-0.049,0.007-0.072,0.01c4.632-0.371,9.265-0.742,13.896-1.113l0,0c2.07-0.177,4.142-0.34,6.21-0.532
		c1.635-0.153,3.267-0.335,4.899-0.509c0.137-0.008,0.297-0.025,0.488-0.051c0.351-0.013,0.705-0.003,1.053-0.04
		c5.061-0.54,10.121-1.087,15.182-1.632c0.238,0.014,0.476,0.014,0.698-0.071c0.044-0.012,0.087-0.027,0.128-0.054
		c0.212-0.013,0.426-0.027,0.638-0.041c0.001,0,0.001,0,0.001,0c0.401-0.041,0.804-0.076,1.205-0.122
		c6.064-0.695,12.121-1.445,18.162-2.323l0,0c3.105-0.438,6.215-0.851,9.314-1.319c7.032-1.066,14.05-2.222,21.042-3.527
		c4.917-0.919,9.831-1.847,14.71-2.955c3.381-0.653,6.729-1.455,10.074-2.27h0.001c0.488-0.108,0.978-0.216,1.466-0.323
		c0,0-0.001,0-0.001-0.001c0.001,0.001,0.001,0.001,0.001,0.001c0.592-0.213,1.319-0.042,1.782-0.625
		C494.906,137.583,494.245,137.731,493.584,137.879C493.584,137.879,493.584,137.879,493.584,137.879z"/>
	<path d="M498.186,136.942c-0.568-0.02-1.115,0.075-1.632,0.318c-0.281-0.022-0.543,0.046-0.792,0.174
		c0.326,0.352,0.619-0.118,0.936-0.039v0.001C497.191,137.233,497.739,137.253,498.186,136.942z"/>
	<path d="M13.893,111.736c-0.196-0.302-0.318-0.49-0.44-0.679c-0.064,0.063-0.128,0.126-0.192,0.189
		C13.375,111.445,13.505,111.622,13.893,111.736z"/>
	<path d="M4.067,188.531c0.092-0.228,0.16-0.395,0.305-0.752C3.962,188.058,3.969,188.247,4.067,188.531z"/>
</g>
<g>
	<path d="M130.558,65.16c-3.764,3.322-7.423,6.7-11.047,10.116c-5.345,5.039-10.643,10.125-15.773,15.385
		c-2.52,2.584-5.22,4.972-8.021,7.243c-0.54,0.438-0.6,0.701-0.14,1.242c3.247,3.82,6.596,7.548,9.914,11.305
		c7.102,8.041,14.195,16.093,21.295,24.134c2.007,2.274,4.03,4.533,6.108,6.87c-1.202,0.114-2.337-0.077-3.472-0.082
		c-2.898-0.017-5.798-0.202-8.69,0.115c-0.531,0.057-0.879-0.091-1.242-0.512c-8.552-9.942-16.716-20.21-25.253-30.163
		c-2.116-2.468-4.185-4.977-6.46-7.304c-0.113-0.116-0.221-0.24-0.346-0.343c-0.371-0.305-0.732-0.781-1.26-0.551
		c-0.534,0.233-0.309,0.812-0.308,1.243c0.003,5.205-0.032,10.411,0.054,15.615c0.1,6.09,0.362,12.176,0.691,18.257
		c0.027,0.516-0.138,0.541-0.539,0.46c-3.176-0.643-6.352-1.284-9.53-1.907c-0.422-0.083-0.6-0.248-0.573-0.695
		c0.299-4.974,0.441-9.953,0.582-14.932c0.03-1.057,0.043-2.114,0.042-3.171c0-10.251,0.057-20.503-0.032-30.753
		c-0.057-6.471-0.333-12.94-0.507-19.41c-0.008-0.305-0.095-0.594,0.364-0.758c3.459-1.238,6.423-3.3,9.227-5.623
		c0.343-0.285,0.693-0.563,1.119-0.908c-0.21,6.788-0.372,13.44-0.635,20.087c-0.258,6.5-0.279,13.002-0.272,19.504
		c0,0.3-0.048,0.657,0.27,0.793c0.294,0.125,0.578-0.095,0.809-0.278c1.994-1.586,3.869-3.311,5.714-5.063
		c9.325-8.852,17.982-18.335,26.44-28.005c0.178-0.205,0.41-0.377,0.539-0.607c0.698-1.245,1.693-1.45,3.036-1.134
		C125.288,65.951,127.923,65.492,130.558,65.16z"/>
	<path d="M289.185,97.227c1.106-1.457,2.221-2.872,3.499-4.16c4.292-4.326,9.544-6.067,15.538-5.786
		c3.275,0.154,6.43,0.816,9.257,2.579c4.147,2.585,6.327,6.477,7.233,11.157c0.735,3.806,0.519,7.656,0.394,11.5
		c-0.091,2.787-0.167,5.574-0.26,8.363c-0.16,4.769-0.136,9.538-0.11,14.308c0.012,2.083,0.133,4.164,0.205,6.281
		c-0.993,0.114-2.007-0.123-3.028-0.138c-1.951-0.027-3.901-0.011-5.846,0.165c-0.365,0.033-0.6,0.025-0.574-0.483
		c0.179-3.622,0.297-7.248,0.491-10.87c0.391-7.284,0.364-14.576,0.25-21.864c-0.059-3.817-0.779-7.543-3.107-10.735
		c-2.122-2.911-5.036-4.32-8.626-4.389c-2.741-0.054-5.405,0.304-7.879,1.541c-3.429,1.713-5.259,4.704-6.388,8.216
		c-0.749,2.333-1.08,4.751-1.127,7.186c-0.11,5.718,0.082,11.435,0.207,17.15c0.08,3.653,0.275,7.305,0.43,10.954
		c0.039,0.92,0.074,1.843,0.193,2.754c0.07,0.531-0.13,0.578-0.555,0.545c-2.378-0.187-4.761-0.242-7.145-0.116
		c-0.648,0.033-1.298,0.059-1.943,0.121c-0.356,0.034-0.469-0.055-0.438-0.431c0.422-5.048,0.523-10.108,0.671-15.17
		c0.094-3.224,0.096-6.447,0.146-9.671c0.162-10.547,0.071-21.094,0.055-31.641c-0.01-5.741-0.189-11.483-0.314-17.224
		c-0.037-1.704-0.146-3.406-0.231-5.108c-0.017-0.341,0.051-0.538,0.443-0.623c4.666-1.02,5.054-1.208,9.338-4.409
		C289.142,70.593,289.036,83.889,289.185,97.227z"/>
	<path d="M189.941,141.542c-2.669-0.203-5.212-0.301-7.758-0.159c-0.675,0.037-1.35,0.077-2.025,0.118
		c-0.254,0.016-0.374-0.011-0.337-0.352c1.147-10.666,0.881-21.374,0.88-32.071c0-5.414-0.101-10.832-0.475-16.238
		c-0.088-1.269-0.172-2.544-0.379-3.796c-0.113-0.683,0.154-0.651,0.623-0.583c0.882,0.128,1.772,0.209,2.651,0.36
		c1.691,0.291,3.344-0.016,5.003-0.264c0.24-0.036,0.491-0.037,0.719-0.111c0.497-0.161,0.514,0.096,0.494,0.478
		c-0.108,2.026-0.211,4.054-0.295,6.081c-0.031,0.738-0.005,1.48-0.005,2.473c1.026-1.432,1.917-2.638,2.938-3.744
		c4.406-4.77,9.886-6.792,16.313-6.437c3.339,0.186,6.53,0.87,9.381,2.719c3.967,2.573,6.065,6.368,6.964,10.887
		c0.794,3.992,0.519,8.038,0.403,12.07c-0.082,2.814-0.173,5.629-0.262,8.443c-0.136,4.335-0.069,8.673-0.063,13.009
		c0.002,2.166,0.064,4.334,0.184,6.497c0.032,0.582-0.138,0.615-0.592,0.574c-2.243-0.201-4.489-0.229-6.737-0.112
		c-0.54,0.027-1.081,0.056-1.618,0.117c-0.44,0.051-0.49-0.082-0.471-0.526c0.424-10.094,0.896-20.188,0.768-30.297
		c-0.046-3.56-0.258-7.08-1.653-10.419c-1.959-4.689-5.583-7.097-10.67-7.104c-3.058-0.004-5.981,0.534-8.573,2.252
		c-2.909,1.93-4.4,4.835-5.343,8.073c-0.692,2.379-0.962,4.831-0.974,7.296c-0.026,5.313-0.035,10.628,0.05,15.94
		C189.16,131.635,189.275,136.557,189.941,141.542z"/>
	<path d="M249.302,142.63c-4.769,0.101-9.188-0.817-13.365-2.886c-0.626-0.31-0.806-0.536-0.518-1.247
		c0.901-2.229,1.65-4.513,1.806-6.941c0.013-0.206-0.055-0.506,0.28-0.458c0.466,0.066,1.01-0.278,1.375,0.353
		c1.147,1.982,2.739,3.568,4.636,4.82c4.404,2.904,9.025,3.492,13.782,0.952c4.389-2.342,5.514-7.288,4.395-11.166
		c-0.687-2.379-2.608-3.652-4.638-4.733c-2.781-1.481-5.824-2.25-8.833-3.112c-3.299-0.945-6.387-2.3-8.928-4.728
		c-2.096-2.003-3.277-4.418-3.515-7.272c-0.327-3.936,0.185-7.727,2.309-11.158c2.484-4.014,6.215-6.253,10.723-7.226
		c4.985-1.077,9.884-0.784,14.603,1.334c0.931,0.418,1.908,0.737,2.878,1.063c0.383,0.129,0.424,0.233,0.241,0.613
		c-1.081,2.243-1.841,4.599-2.366,7.03c-0.065,0.308-0.144,0.58-0.562,0.512c-0.432-0.07-0.904,0.184-1.183-0.489
		c-1.136-2.752-3.079-4.798-5.889-5.797c-4.643-1.65-10.296-0.114-12.417,4.835c-0.999,2.33-1.021,4.737-0.226,7.131
		c0.545,1.644,1.783,2.753,3.164,3.697c2.565,1.752,5.521,2.548,8.47,3.312c2.962,0.768,5.89,1.607,8.495,3.268
		c3.751,2.392,5.573,5.802,5.742,10.287c0.274,7.335-5,14.893-13.435,17.192C253.986,142.454,251.604,142.725,249.302,142.63z"/>
	<path d="M454.706,83.267c-0.517,1.235-1.032,2.47-1.551,3.704c-0.079,0.189-0.079,0.472-0.36,0.476
		c-0.285,0.003-0.283-0.281-0.362-0.47c-0.518-1.237-1.032-2.476-1.712-3.696c0,1.157,0.014,2.314-0.011,3.471
		c-0.006,0.262,0.225,0.705-0.356,0.712c-0.586,0.007-0.365-0.438-0.368-0.703c-0.021-1.489-0.02-2.979-0.001-4.47
		c0.003-0.243-0.197-0.657,0.325-0.657c0.356,0,0.718-0.111,0.913,0.414c0.455,1.228,0.994,2.424,1.57,3.808
		c0.554-1.33,1.078-2.491,1.516-3.684c0.201-0.545,0.546-0.601,0.999-0.538c0.548,0.077,0.274,0.52,0.28,0.777
		c0.031,1.489,0.021,2.979,0.01,4.47c-0.001,0.236,0.129,0.563-0.33,0.587c-0.5,0.026-0.408-0.313-0.408-0.594
		c-0.005-1.19-0.002-2.38-0.002-3.57C454.806,83.292,454.755,83.279,454.706,83.267z"/>
	<path d="M446.482,84.916c0-0.324,0.006-0.649-0.001-0.974c-0.01-0.483,0.136-1.072-0.089-1.42c-0.223-0.348-0.85-0.1-1.296-0.124
		c-0.295-0.017-0.439-0.088-0.44-0.418c-0.002-0.384,0.237-0.353,0.484-0.353c1.164,0,2.327,0.003,3.49-0.002
		c0.265-0.001,0.475,0.005,0.471,0.369c-0.004,0.337-0.171,0.389-0.458,0.404c-0.446,0.023-1.071-0.224-1.294,0.116
		c-0.225,0.346-0.087,0.936-0.09,1.419c-0.007,1.001,0.001,2.002-0.004,3.003c-0.003,0.251,0.093,0.547-0.365,0.539
		c-0.412-0.008-0.412-0.241-0.41-0.529C446.486,86.27,446.483,85.593,446.482,84.916z"/>
	<g>
		<path d="M388.345,107.637c-1.784-8.287-6.342-14.429-14.169-17.874c-6.368-2.802-13.017-3.226-19.765-1.618
			c-9.088,2.165-15.358,7.574-18.283,16.518c-2.014,6.156-2.079,12.502-0.6,18.753c2.054,8.685,7.204,14.852,15.844,17.661
			c6.042,1.963,12.232,2.091,18.431,0.709c7.288-1.626,12.728-5.708,16.187-12.368c2.33-4.482,3.053-9.304,3.045-14.282
			C389.032,112.616,388.878,110.108,388.345,107.637z M376.823,129.128c-1.544,3.815-3.948,6.878-7.705,8.723
			c-2.585,1.27-5.361,1.582-8.202,1.483c-4.504-0.156-8.298-1.825-11.207-5.32c-1.971-2.368-3.215-5.121-3.91-8.091
			c-1.752-7.502-1.765-15.013,0.251-22.468c0.894-3.305,2.462-6.28,5.009-8.653c3.39-3.158,7.5-4.104,11.987-3.876
			c4.092,0.208,7.621,1.673,10.415,4.727c2.317,2.534,3.655,5.583,4.475,8.871c0.867,3.481,1.194,7.031,1.178,11.791
			C379.049,119.916,378.638,124.637,376.823,129.128z"/>
	</g>
	<g>
		<path d="M447.735,107.738c-1.679-8.005-5.975-14.1-13.437-17.625c-7.158-3.382-14.637-3.731-22.213-1.505
			c-8.377,2.461-14.024,7.887-16.634,16.184c-2.125,6.756-2.12,13.69-0.06,20.468c2.327,7.655,7.254,13.108,14.935,15.685
			c6.262,2.101,12.674,2.254,19.127,0.757c7.664-1.777,13.103-6.263,16.419-13.353c1.953-4.175,2.533-8.627,2.531-13.89
			C448.437,112.665,448.247,110.185,447.735,107.738z M438.356,118.609c-0.265,3.737-0.824,7.407-2.315,10.878
			c-1.744,4.063-4.39,7.395-8.676,8.796c-6.388,2.085-12.47,1.578-17.516-3.426c-2.71-2.687-4.071-6.133-4.899-9.794
			c-0.744-3.284-1.05-6.619-1.025-9.987c0.056-4.641,0.47-9.226,2.157-13.607c1.475-3.832,3.804-6.966,7.51-8.903
			c2.837-1.483,5.906-1.814,9.055-1.625c4.414,0.267,8.072,2.042,10.86,5.505c1.79,2.223,2.936,4.781,3.648,7.52
			C438.405,108.771,438.706,113.664,438.356,118.609z"/>
	</g>
	<g>
		<path d="M174.486,130.055c-0.443-0.224-0.501,0.172-0.684,0.349c-5.638,5.446-12.182,8.269-20.117,6.684
			c-3.735-0.746-7.065-2.396-9.445-5.523c-1.956-2.571-3.21-5.488-3.994-8.611c-0.357-1.424-0.35-1.426,1.108-1.817
			c0.182-0.049,0.363-0.103,0.544-0.153c6.864-1.927,13.63-4.124,19.946-7.499c3.456-1.846,6.727-3.967,9.165-7.119
			c2.141-2.769,3.156-5.815,1.697-9.228c-0.915-2.14-2.529-3.763-4.392-5.124c-5.446-3.979-11.57-5.241-18.142-4.203
			c-9.935,1.568-16.685,7.206-20.051,16.634c-1.887,5.287-1.723,10.86-0.719,16.299c1.274,6.896,5.071,12.351,10.726,16.433
			c4.702,3.394,10.12,4.585,15.834,4.643c1.469,0.036,2.922-0.096,4.372-0.316c4.959-0.756,9.422-2.689,13.466-5.634
			c0.256-0.187,0.386-0.385,0.42-0.721c0.144-1.427,0.329-2.849,0.51-4.271C174.771,130.558,174.909,130.267,174.486,130.055z
			 M139.876,111.182c0.464-3.566,1.129-7.087,2.433-10.457c0.854-2.207,1.931-4.26,3.715-5.9c4.188-3.851,9.094-4.563,14.333-3.05
			c2.721,0.786,4.771,2.642,5.45,5.598c0.331,1.441,0.062,2.833-0.499,4.194c-1.078,2.617-3.142,4.335-5.294,6.007
			c-3.604,2.801-7.728,4.587-11.929,6.239c-2.828,1.113-5.656,2.225-8.542,3.543C139.445,115.21,139.615,113.193,139.876,111.182z"
			/>
	</g>
</g>
</svg>
